<?xml version="1.0" encoding="UTF-8" standalone="no"?>
<!-- Generated by Visual Integrity Suite 6.5.3 -->
<svg
   xmlns:dc="http://purl.org/dc/elements/1.1/"
   xmlns:cc="http://creativecommons.org/ns#"
   xmlns:rdf="http://www.w3.org/1999/02/22-rdf-syntax-ns#"
   xmlns:svg="http://www.w3.org/2000/svg"
   xmlns="http://www.w3.org/2000/svg"
   xmlns:sodipodi="http://sodipodi.sourceforge.net/DTD/sodipodi-0.dtd"
   xmlns:inkscape="http://www.inkscape.org/namespaces/inkscape"
   xml:space="preserve"
   width="744.09448"
   height="1052.3622"
   viewBox="0 0 422.21 278.79"
   id="svg2"
   sodipodi:version="0.32"
   inkscape:version="0.46"
   sodipodi:docname="sau-logo-text-grayscale-transparent.svg"
   inkscape:output_extension="org.inkscape.output.svg.inkscape"
   sodipodi:docbase="/home/sander/workspace/aikido/images"
   version="1.0"
   sodipodi:modified="true"><metadata
   id="metadata199"><rdf:RDF><cc:Work
       rdf:about=""><dc:format>image/svg+xml</dc:format><dc:type
         rdf:resource="http://purl.org/dc/dcmitype/StillImage" /><dc:creator><cc:Agent><dc:title>Sanshinkai Aikido Utrecht</dc:title></cc:Agent></dc:creator><dc:publisher><cc:Agent><dc:title>Sanshinkai Aikido Utrecht</dc:title></cc:Agent></dc:publisher><dc:subject><rdf:Bag><rdf:li>logo</rdf:li><rdf:li>text</rdf:li><rdf:li>grayscale</rdf:li><rdf:li>transparent</rdf:li></rdf:Bag></dc:subject><dc:date>2007-05-21</dc:date><dc:rights><cc:Agent><dc:title>Sanshinkai Aikido Utrecht</dc:title></cc:Agent></dc:rights><dc:title>sau-logo-text-grayscale-transparent.svg</dc:title></cc:Work></rdf:RDF></metadata><defs
   id="defs197"><inkscape:perspective
   sodipodi:type="inkscape:persp3d"
   inkscape:vp_x="0 : 526.18109 : 1"
   inkscape:vp_y="0 : 1000 : 0"
   inkscape:vp_z="744.09448 : 526.18109 : 1"
   inkscape:persp3d-origin="372.04724 : 350.78739 : 1"
   id="perspective90" />
</defs><sodipodi:namedview
   inkscape:window-height="750"
   inkscape:window-width="1280"
   inkscape:pageshadow="2"
   inkscape:pageopacity="0.0"
   guidetolerance="10.0"
   gridtolerance="10.0"
   objecttolerance="10.0"
   borderopacity="1.0"
   bordercolor="#666666"
   pagecolor="#ffffff"
   id="base"
   inkscape:zoom="0.5302357"
   inkscape:cx="372.04724"
   inkscape:cy="526.18109"
   inkscape:window-x="0"
   inkscape:window-y="25"
   inkscape:current-layer="svg2"
   width="492px"
   height="492px"
   showgrid="false" />
































































































<g
   id="g2319"
   inkscape:export-filename="/home/sander/workspace/aikido/sau/images/sau-logo-text-grayscale-transparent-600dpi.png"
   inkscape:export-xdpi="599.93628"
   inkscape:export-ydpi="599.93628"><g
   id="g2238"><path
     style="fill:none;fill-rule:nonzero;stroke:#000000;stroke-width:3.05999994;stroke-linecap:round;stroke-linejoin:round;stroke-opacity:1"
     d="M 183.295,-29.2619 C 192.295,-31.0619 201.655,-31.9619 211.015,-31.9619 C 287.335,-31.9619 349.075,29.7781 349.075,105.9181 C 349.075,146.0581 331.975,182.0581 304.795,207.2581"
     id="path4" /><path
     style="fill:none;fill-opacity:1;fill-rule:nonzero;stroke:#000000;stroke-width:3.05999994;stroke-linecap:round;stroke-linejoin:round;stroke-opacity:1"
     d="M 97.615,184.3981 C 82.135,162.2581 73.135,135.0781 73.135,105.9181 C 73.135,66.498104 89.695,31.0381 116.155,5.8381"
     id="path6" /><path
     style="fill:#000000;fill-rule:nonzero;stroke:none;stroke-width:3.05999994;stroke-linecap:round;stroke-linejoin:round;fill-opacity:1"
     d="M 180.47327,53.139315 C 179.50858,53.161813 178.43518,53.533731 177.17518,54.433729 C 171.95517,57.853735 174.29447,53.892217 168.89447,59.292216 C 163.49448,64.692215 163.12735,65.238873 162.22735,69.558872 C 161.50735,73.878882 159.71809,77.289429 161.51808,80.88943 C 163.31808,84.309425 168.53669,94.39562 172.31669,94.755622 C 172.3167,94.755622 176.09576,94.759356 179.51576,93.319354 C 183.11576,91.879347 187.25706,91.886235 190.13705,88.106234 C 192.83706,84.506238 192.65344,83.60448 197.51344,81.084479 C 202.37344,78.564472 200.57507,72.799921 198.59508,68.299921 C 196.61507,63.979917 193.20078,59.301312 188.70078,57.501314 C 185.32579,56.151316 183.36734,53.071815 180.47327,53.139315 z M 180.04771,63.441435 C 180.22771,63.441435 180.24276,65.602013 180.24276,65.782019 C 180.24276,67.402022 180.40771,69.197826 180.04771,70.817823 C 179.68771,71.897823 179.15145,72.79036 178.61145,73.690359 C 178.43144,73.87036 178.25682,72.256769 178.25681,72.076774 C 178.25681,71.356776 178.07413,69.921546 178.43413,69.381555 C 178.79413,68.661557 179.33308,67.938291 179.69308,67.218287 C 179.69308,67.06079 179.83594,66.482589 179.8704,66.704068 C 179.8704,66.43483 179.8704,65.93546 179.8704,65.782019 C 179.8704,65.602018 179.68771,63.44144 180.04771,63.441435 z M 183.68271,69.452482 C 183.72701,69.489398 183.82075,69.789447 183.8423,69.771653 C 183.8423,70.289691 183.84229,70.645789 183.8423,71.172457 C 183.8423,72.072456 184.00724,72.985409 183.64725,73.885408 C 183.10725,76.045407 181.84771,77.483899 180.04771,78.743894 C 180.04771,78.743894 179.87039,76.58331 179.8704,76.40331 C 179.8704,76.043308 179.68771,74.420043 180.04771,74.240042 C 181.84771,72.980041 183.10724,71.718883 183.64725,69.558872 C 183.64725,69.468874 183.66584,69.438421 183.68271,69.452482 z M 185.6864,74.364164 C 185.70421,74.355437 185.72694,74.359948 185.73959,74.364164 C 185.81553,74.389476 185.81052,74.594676 185.81052,74.594676 C 185.81052,75.134679 185.98783,75.490947 185.98783,76.030944 C 185.98783,76.570946 185.98783,77.119574 185.98783,77.839577 C 185.80783,78.019578 185.99051,78.563899 185.81052,78.743894 C 184.91052,79.823894 184.37261,81.071071 183.29262,81.971064 C 183.29262,81.971064 183.11529,81.26179 183.1153,81.261796 C 183.1153,80.721793 183.11529,80.365531 183.1153,79.825528 C 183.1153,79.285526 183.11529,78.734203 183.1153,78.194212 C 183.1153,78.014211 183.11261,77.664939 183.29262,77.484943 C 184.37261,76.584945 184.9132,75.497359 185.6332,74.417359 C 185.6557,74.394861 185.66858,74.37289 185.6864,74.364164 z "
     id="path8" /><path
     style="fill:#000000;fill-rule:nonzero;stroke:none;stroke-width:3.05999994;stroke-linecap:round;stroke-linejoin:round;fill-opacity:1"
     d="M 169.435,135.4381 C 169.435,135.4381 140.815,179.5381 140.455,183.6781 C 140.095,187.9981 131.455,227.9581 140.455,232.2781 C 149.455,236.7781 153.055,242.7181 166.735,240.0181 C 180.415,237.1381 195.895,230.4781 200.755,225.6181 C 205.795,220.7581 206.515,216.4381 207.055,219.4981 C 207.415,222.7381 201.655,235.6981 206.695,237.8581 C 206.695,237.8581 231.175,232.8181 236.935,237.4981 C 244.135,243.0781 258.175,244.8781 266.455,240.9181 C 274.915,236.9581 278.515,232.8181 280.855,225.9781 C 283.195,219.1381 282.655,218.7781 285.355,214.6381 C 286.975,211.9381 293.095,200.5981 286.975,192.8581 C 271.855,173.7781 270.775,172.5181 262.135,171.4381 C 253.675,170.1781 249.175,171.7981 249.535,168.0181 C 249.895,164.2381 248.815,148.3981 246.655,146.4181 C 244.495,144.4381 236.755,142.0981 229.015,140.8381 C 221.455,139.5781 212.095,136.1581 209.215,135.6181 C 206.335,135.0781 200.755,142.8181 193.015,144.2581 C 185.275,145.8781 184.195,141.3781 180.955,140.8381 C 177.535,140.2981 170.875,139.0381 169.255,134.5381"
     id="path10" /><path
     style="fill:#000000;fill-rule:nonzero;stroke:none;stroke-width:3.05999994;stroke-linecap:round;stroke-linejoin:round;fill-opacity:1"
     d="M 253.855,147.3181 C 253.855,147.3181 263.035,149.8381 266.995,148.3981 C 271.135,146.7781 273.835,146.0581 275.455,144.4381 C 277.075,142.8181 277.255,140.8381 278.335,138.8581 C 279.595,136.8781 281.035,131.4781 281.755,128.9581 C 282.295,126.6181 283.915,124.4581 281.935,123.9181 C 279.955,123.1981 272.035,123.3781 273.655,121.2181 C 275.275,119.2381 276.895,114.1981 276.895,114.1981 C 276.895,114.1981 271.855,114.5581 268.435,115.0981 C 263.575,115.9981 263.575,115.9981 261.955,118.1581 C 260.515,120.3181 258.895,116.5381 260.515,120.3181 C 262.675,125.3581 264.115,124.4581 268.075,128.0581 C 271.315,131.1181 272.755,133.6381 267.355,138.3181 C 262.855,142.4581 261.415,148.2181 253.855,147.3181 z "
     id="path12" /><path
     style="fill:#000000;fill-rule:nonzero;stroke:none;stroke-width:3.05999994;stroke-linecap:round;stroke-linejoin:round;fill-opacity:1"
     d="M 266.995,100.6981 C 266.995,100.6981 266.815,85.758104 270.415,84.678104 C 274.195,83.778104 271.315,94.038104 273.295,95.478104 C 275.455,97.098104 268.615,97.998104 266.995,100.6981 z "
     id="path14" /><path
     style="fill:#000000;fill-rule:nonzero;stroke:none;stroke-width:3.05999994;stroke-linecap:round;stroke-linejoin:round;fill-opacity:1"
     d="M 199.495,61.6381 C 199.495,61.6381 201.295,60.5581 202.015,58.5781 C 202.555,56.5981 201.835,54.7981 204.715,55.3381 C 207.595,55.8781 227.935,64.338104 232.255,67.938104 C 236.395,71.538104 238.375,72.258104 239.455,73.518104 C 240.715,74.778104 251.515,68.658104 256.555,67.938104 C 261.595,67.218104 263.215,68.838104 264.475,67.758104 C 265.735,66.678104 270.235,68.478104 262.495,69.918104 C 254.755,71.538104 244.495,75.678104 241.975,78.378104 C 239.635,80.898104 235.135,79.638104 235.135,79.638104 L 237.475,75.678104 C 237.475,75.678104 214.615,58.2181 199.495,61.6381 z "
     id="path16" /><path
     style="fill:#000000;fill-rule:nonzero;stroke:none;stroke-width:3.05999994;stroke-linecap:round;stroke-linejoin:round;fill-opacity:1"
     d="M 182.395,96.378104 C 182.395,96.378104 187.975,96.918104 189.955,93.138104 C 189.955,93.138104 191.935,99.618104 182.395,96.378104 z "
     id="path18" /><path
     style="fill:#000000;fill-rule:nonzero;stroke:none;stroke-width:3.05999994;stroke-linecap:round;stroke-linejoin:round;fill-opacity:1"
     d="M 194.815,90.798104 L 199.855,83.778104 C 199.855,83.778104 202.015,88.818104 194.815,90.798104 z "
     id="path20" /><path
     style="fill:none;fill-rule:nonzero;stroke:#000000;stroke-width:1.98000002;stroke-linecap:butt;stroke-linejoin:miter;stroke-opacity:1"
     d="M 285.535,146.7781 C 285.535,146.7781 289.495,146.5981 291.475,146.0581 C 293.455,145.3381 292.195,148.3981 289.855,149.8381 C 287.515,151.0981 288.595,150.3781 285.535,146.7781 z "
     id="path22" /><path
     style="fill:#000000;fill-rule:nonzero;stroke:none;stroke-width:1.98000002;stroke-linecap:butt;stroke-linejoin:miter;fill-opacity:1"
     d="M 123.355,183.3181 C 123.535,183.4981 123.535,183.8581 123.715,184.0381 C 123.535,182.9581 123.535,181.8781 123.535,180.7981 C 123.355,183.1381 116.335,186.9181 114.355,188.3581 C 112.375,189.6181 111.655,191.5981 110.215,193.2181 C 109.315,194.2981 107.875,195.0181 106.615,195.7381 C 105.355,196.4581 104.275,198.7981 103.375,199.8781 C 102.655,200.9581 103.915,203.6581 103.375,204.3781 C 104.815,202.5781 105.715,200.7781 107.695,199.5181 C 109.315,198.6181 110.575,197.5381 111.655,195.9181 C 113.635,193.0381 116.155,191.5981 118.855,189.6181 C 121.915,187.4581 126.235,183.1381 123.355,178.9981 C 123.715,179.3581 122.635,182.2381 123.355,183.3181 L 123.355,183.3181 z "
     id="path24" /><path
     style="fill:#000000;fill-rule:nonzero;stroke:none;stroke-width:1.98000002;stroke-linecap:butt;stroke-linejoin:miter;fill-opacity:1"
     d="M 131.995,183.3181 C 128.575,184.9381 128.395,189.4381 126.775,192.4981 C 125.515,194.8381 122.815,194.8381 120.295,195.3781 C 117.775,195.9181 116.875,197.5381 114.895,198.9781 C 113.995,199.6981 115.435,203.1181 114.895,203.4781 C 116.875,202.0381 117.775,200.5981 120.295,199.8781 C 122.635,199.1581 124.795,199.5181 126.415,197.3581 C 128.755,194.4781 128.215,189.6181 131.995,187.8181 C 132.895,187.4581 131.815,183.4981 131.995,183.3181 L 131.995,183.3181 z "
     id="path26" /><path
     style="fill:none;fill-rule:nonzero;stroke:#000000;stroke-width:1.98000002;stroke-linecap:butt;stroke-linejoin:miter;stroke-opacity:1"
     d="M 284.635,157.5781 L 290.575,160.0981 C 290.575,160.0981 288.235,160.4581 287.155,162.4381 C 286.075,164.4181 285.535,164.0581 284.455,162.7981"
     id="path28" /><path
     style="fill:none;fill-rule:nonzero;stroke:#000000;stroke-width:1.98000002;stroke-linecap:butt;stroke-linejoin:miter;stroke-opacity:1"
     d="M 301.915,154.6981 L 297.595,157.2181 C 297.595,157.2181 299.575,160.8181 302.995,158.4781"
     id="path30" /><path
     style="fill:none;fill-rule:nonzero;stroke:#000000;stroke-width:1.08000004;stroke-linecap:butt;stroke-linejoin:miter;stroke-opacity:1"
     d="M 193.735,97.998104 C 193.735,97.998104 196.615,98.898104 197.695,95.298104"
     id="path32" /><path
     style="fill:#000000;fill-rule:nonzero;stroke:none;stroke-width:1.08000004;stroke-linecap:butt;stroke-linejoin:miter;fill-opacity:1"
     d="M 130.195,-24.7619 C 133.795,-20.8019 138.295,-19.1819 140.635,-14.1419 C 141.535,-12.1619 142.255,-11.0819 143.875,-9.6419 C 144.955,-8.5619 146.035,-7.4819 146.575,-6.0419 C 147.115,-4.9619 147.115,-2.6219 147.655,-5.5019 C 147.475,-4.4219 147.475,-3.3419 147.475,-2.4419 C 147.475,-2.2619 147.655,-0.6419 147.835,-1.5419 C 148.375,-4.9619 148.015,-9.6419 145.675,-12.3419 C 144.235,-13.9619 142.435,-15.2219 141.355,-17.2019 C 140.455,-18.8219 139.735,-20.6219 138.655,-22.4219 C 136.675,-25.3019 132.535,-26.5619 130.195,-29.2619 C 130.915,-28.5419 129.475,-25.6619 130.195,-24.7619 L 130.195,-24.7619 z "
     id="path34" /><path
     style="fill:#000000;fill-rule:nonzero;stroke:none;stroke-width:1.08000004;stroke-linecap:butt;stroke-linejoin:miter;fill-opacity:1"
     d="M 131.635,-31.2419 C 134.515,-29.9819 137.395,-29.8019 139.735,-27.4619 C 142.075,-25.4819 144.415,-24.0419 147.295,-22.7819 C 150.355,-21.3419 152.695,-22.4219 155.755,-22.6019 C 157.735,-22.7819 160.615,-22.9619 161.515,-20.8019 C 161.515,-22.0619 161.515,-23.5019 161.515,-24.9419 C 161.155,-23.1419 159.895,-22.0619 159.715,-20.2619 C 159.355,-19.0019 159.355,-17.5619 159.355,-16.3019 C 159.355,-13.9619 159.175,-10.3619 161.515,-9.1019 C 161.335,-9.2819 162.415,-13.0619 161.515,-13.6019 C 157.015,-16.1219 166.555,-25.6619 158.635,-27.1019 C 157.015,-27.2819 155.035,-27.1019 153.235,-26.7419 C 150.355,-26.2019 148.375,-26.7419 145.675,-28.0019 C 143.515,-29.0819 141.535,-30.5219 139.735,-31.9619 C 137.395,-34.1219 134.515,-34.4819 131.635,-35.7419 C 131.995,-35.5619 130.915,-31.6019 131.635,-31.2419 L 131.635,-31.2419 z "
     id="path36" /><path
     style="fill:#000000;fill-rule:nonzero;stroke:none;stroke-width:1.08000004;stroke-linecap:butt;stroke-linejoin:miter;fill-opacity:1"
     d="M 127.315,-34.8419 C 126.415,-34.4819 125.155,-33.9419 124.975,-32.8619 C 124.615,-31.9619 124.795,-30.8819 124.795,-29.9819 C 124.795,-29.2619 124.795,-28.5419 124.975,-28.0019 C 125.515,-26.9219 127.315,-27.8219 128.035,-28.0019 C 129.655,-28.1819 130.375,-26.3819 131.455,-25.6619 C 131.455,-25.6619 131.635,-27.6419 131.635,-27.8219 C 131.635,-28.1819 131.815,-29.8019 131.455,-30.1619 C 130.375,-31.0619 129.835,-32.5019 128.035,-32.5019 C 127.315,-32.3219 125.335,-31.4219 124.975,-32.5019 C 125.155,-32.1419 125.155,-31.9619 125.155,-31.6019 C 125.155,-31.6019 125.155,-31.6019 125.155,-31.6019 C 125.155,-30.7019 125.155,-29.8019 125.155,-28.9019 C 124.975,-28.5419 124.975,-28.5419 125.155,-28.7219 C 125.335,-29.0819 125.515,-29.0819 125.695,-29.2619 C 126.055,-29.8019 126.775,-30.1619 127.315,-30.3419 C 127.675,-30.5219 127.495,-32.3219 127.495,-32.6819 C 127.495,-32.6819 127.495,-34.8419 127.315,-34.8419 L 127.315,-34.8419 z "
     id="path38" /><path
     style="fill:#000000;fill-rule:nonzero;stroke:none;stroke-width:1.08000004;stroke-linecap:butt;stroke-linejoin:miter;fill-opacity:1"
     d="M 149.815,-14.8619 C 151.255,-15.0419 152.155,-16.6619 153.595,-16.8419 C 154.315,-17.0219 154.675,-16.3019 154.855,-15.7619 C 155.035,-15.5819 155.215,-15.2219 155.395,-14.8619 C 155.935,-13.0619 154.855,-13.2419 155.755,-16.8419 C 155.395,-15.9419 155.575,-14.6819 155.575,-13.7819 C 155.575,-13.6019 155.755,-12.1619 155.935,-12.8819 C 156.475,-15.4019 156.115,-18.4619 154.855,-20.6219 C 153.415,-22.7819 151.435,-19.7219 149.815,-19.3619 C 149.275,-19.1819 149.815,-14.8619 149.815,-14.8619 L 149.815,-14.8619 z "
     id="path40" /><path
     style="fill:#000000;fill-rule:nonzero;stroke:none;stroke-width:1.08000004;stroke-linecap:butt;stroke-linejoin:miter;fill-opacity:1"
     d="M 131.635,9.6181 C 139.375,11.4181 144.235,8.1781 149.635,2.7781 C 151.435,0.7981 153.775,-0.8219 156.295,-1.3619 C 159.355,-2.2619 162.415,-3.3419 165.475,-2.2619 C 165.475,-2.4419 166.195,-6.5819 165.475,-6.7619 C 162.235,-7.8419 160.435,-6.2219 157.375,-6.2219 C 154.495,-6.2219 151.615,-3.7019 149.635,-1.7219 C 143.875,3.4981 139.555,6.9181 131.635,5.1181 C 131.635,5.1181 130.915,9.4381 131.635,9.6181 L 131.635,9.6181 z "
     id="path42" /><path
     style="fill:#000000;fill-rule:nonzero;stroke:none;stroke-width:1.08000004;stroke-linecap:butt;stroke-linejoin:miter;fill-opacity:1"
     d="M 140.095,21.3181 C 144.775,28.6981 149.275,36.4381 153.055,44.3581 C 154.675,47.5981 157.915,49.5781 160.795,51.3781 C 164.395,53.7181 167.995,56.2381 172.135,56.7781 C 172.315,56.7781 172.675,52.2781 172.135,52.2781 C 165.115,51.1981 155.575,45.0781 152.515,38.7781 C 148.915,31.2181 144.595,24.0181 140.275,16.8181 C 140.455,17.3581 139.555,20.2381 140.095,21.3181 L 140.095,21.3181 z "
     id="path44" /><path
     style="fill:#000000;fill-rule:nonzero;stroke:none;stroke-width:1.08000004;stroke-linecap:butt;stroke-linejoin:miter;fill-opacity:1"
     d="M 166.555,0.0781 C 170.335,4.9381 174.475,9.4381 178.975,13.5781 C 183.655,17.8981 188.695,20.4181 194.275,23.6581 C 193.915,23.2981 195.175,19.5181 194.275,19.1581 C 188.695,15.9181 183.655,13.3981 178.975,9.0781 C 174.475,4.9381 170.335,0.4381 166.555,-4.4219 C 167.095,-3.7019 165.655,-0.8219 166.555,0.0781 L 166.555,0.0781 z "
     id="path46" /><path
     style="fill:#000000;fill-rule:nonzero;stroke:none;stroke-width:1.08000004;stroke-linecap:butt;stroke-linejoin:miter;fill-opacity:1"
     d="M 155.035,22.9381 C 155.935,23.1181 156.655,22.9381 157.375,22.7581 C 158.635,22.3981 159.535,22.3981 160.795,22.5781 C 162.955,23.1181 164.755,24.0181 166.555,25.2781 C 166.555,25.4581 166.915,23.2981 166.915,23.1181 C 166.915,22.7581 166.915,21.1381 166.555,20.7781 C 164.755,19.5181 162.955,18.6181 160.795,18.0781 C 159.895,17.8981 158.995,17.8981 158.095,18.0781 C 157.015,18.2581 156.115,18.7981 155.035,18.4381 C 155.035,18.4381 154.315,22.7581 155.035,22.9381 L 155.035,22.9381 z "
     id="path48" /><path
     style="fill:#000000;fill-rule:nonzero;stroke:none;stroke-width:1.08000004;stroke-linecap:butt;stroke-linejoin:miter;fill-opacity:1"
     d="M 171.775,26.3581 C 175.555,26.5381 179.515,26.8981 183.295,27.7981 C 187.615,28.8781 190.855,32.2981 194.455,34.8181 C 193.915,34.4581 195.355,30.8581 194.455,30.3181 C 191.215,28.1581 188.335,25.2781 184.735,23.8381 C 180.775,22.0381 175.915,22.0381 171.775,21.8581 C 171.415,21.8581 171.235,26.3581 171.775,26.3581 L 171.775,26.3581 z "
     id="path50" /><path
     style="fill:#000000;fill-rule:nonzero;stroke:none;stroke-width:1.08000004;stroke-linecap:butt;stroke-linejoin:miter;fill-opacity:1"
     d="M 178.615,21.3181 C 181.855,22.3981 185.095,23.2981 188.155,24.5581 C 191.575,25.9981 194.635,28.5181 197.515,30.6781 C 196.975,30.4981 198.415,26.8981 197.515,26.1781 C 194.995,24.3781 192.295,22.0381 189.415,20.5981 C 185.995,18.9781 182.215,18.0781 178.615,16.8181 C 178.795,16.9981 177.895,21.1381 178.615,21.3181 L 178.615,21.3181 z "
     id="path52" /><path
     style="fill:#000000;fill-rule:nonzero;stroke:none;stroke-width:1.08000004;stroke-linecap:butt;stroke-linejoin:miter;fill-opacity:1"
     d="M 173.215,42.7381 C 175.555,40.3981 179.515,39.8581 182.575,40.3981 C 185.275,40.9381 187.615,42.7381 190.315,43.0981 C 193.015,43.6381 195.895,43.2781 198.415,42.9181 C 198.955,42.9181 198.595,38.4181 198.415,38.4181 C 193.195,39.1381 189.055,38.5981 184.015,36.4381 C 180.775,34.9981 175.915,35.7181 173.215,38.2381 C 172.315,38.9581 173.755,42.1981 173.215,42.7381 L 173.215,42.7381 z "
     id="path54" /><path
     style="fill:#000000;fill-rule:nonzero;stroke:none;stroke-width:1.08000004;stroke-linecap:butt;stroke-linejoin:miter;fill-opacity:1"
     d="M 193.375,48.4981 C 195.355,49.0381 197.155,48.3181 199.135,48.1381 C 201.295,47.7781 203.275,49.3981 205.435,49.5781 C 205.615,49.5781 205.795,45.0781 205.435,45.0781 C 203.455,44.8981 201.835,43.8181 199.855,43.4581 C 197.695,43.2781 195.535,44.7181 193.375,43.9981 C 193.375,43.9981 192.655,48.4981 193.375,48.4981 L 193.375,48.4981 z "
     id="path56" /><path
     style="fill:#000000;fill-rule:nonzero;stroke:none;stroke-width:1.08000004;stroke-linecap:butt;stroke-linejoin:miter;fill-opacity:1"
     d="M 197.155,13.2181 C 198.955,7.8181 200.575,2.0581 206.875,0.7981 C 209.755,0.0781 212.995,1.1581 215.695,1.6981 C 219.475,2.2381 222.535,1.5181 225.955,-0.2819 C 228.295,-1.3619 230.455,-2.9819 233.155,-2.6219 C 235.495,-2.2619 237.655,-0.6419 239.275,0.7981 C 243.955,4.9381 246.655,13.3981 247.915,19.3381 C 248.095,20.0581 248.275,18.6181 248.275,18.4381 C 248.275,17.5381 248.275,16.4581 248.095,15.3781 C 246.835,9.4381 244.495,3.6781 241.075,-1.5419 C 239.635,-3.7019 237.835,-5.1419 235.495,-6.4019 C 232.435,-7.8419 230.095,-6.9419 227.215,-5.3219 C 223.975,-3.7019 221.095,-2.4419 217.315,-2.6219 C 213.715,-2.8019 210.475,-4.0619 206.875,-3.7019 C 200.575,-3.3419 198.775,3.8581 196.975,8.8981 C 196.615,9.9781 197.335,12.4981 197.155,13.2181 L 197.155,13.2181 z "
     id="path58" /><path
     style="fill:#000000;fill-rule:nonzero;stroke:none;stroke-width:1.08000004;stroke-linecap:butt;stroke-linejoin:miter;fill-opacity:1"
     d="M 215.155,11.7781 C 219.655,10.3381 222.895,13.3981 226.135,16.2781 C 229.375,19.3381 234.775,18.4381 238.915,18.9781 C 243.055,19.3381 246.835,21.4981 250.435,23.4781 C 253.315,24.9181 257.275,25.6381 257.815,29.2381 C 257.995,30.1381 258.175,28.5181 258.175,28.3381 C 258.355,27.4381 258.355,26.3581 258.175,25.2781 C 257.815,22.9381 257.455,22.2181 255.295,21.4981 C 250.615,19.8781 246.655,16.6381 241.975,15.1981 C 237.655,13.7581 232.975,14.4781 228.655,13.2181 C 223.435,11.5981 221.275,5.2981 215.155,7.2781 C 214.435,7.4581 215.335,11.7781 215.155,11.7781 L 215.155,11.7781 z "
     id="path60" /><path
     style="fill:#000000;fill-rule:nonzero;stroke:none;stroke-width:1.08000004;stroke-linecap:butt;stroke-linejoin:miter;fill-opacity:1"
     d="M 221.995,8.1781 C 228.835,4.5781 236.215,8.3581 239.455,15.0181 C 239.095,14.4781 240.175,11.7781 239.455,10.6981 C 236.395,4.0381 229.015,0.0781 221.995,3.6781 C 221.095,4.2181 222.355,7.9981 221.995,8.1781 L 221.995,8.1781 z "
     id="path62" /><path
     style="fill:#000000;fill-rule:nonzero;stroke:none;stroke-width:1.08000004;stroke-linecap:butt;stroke-linejoin:miter;fill-opacity:1"
     d="M 196.795,11.5981 C 194.455,17.8981 195.715,24.3781 196.435,30.8581 C 196.975,34.9981 197.875,37.8781 200.575,41.1181 C 204.175,45.2581 208.855,48.4981 213.535,51.3781 C 215.695,52.8181 218.035,53.7181 220.375,54.7981 C 222.355,55.8781 224.155,57.8581 226.135,59.1181 C 230.455,61.9981 235.315,62.8981 240.355,61.8181 C 245.395,60.7381 248.455,57.3181 249.715,52.8181 C 251.335,47.5981 253.135,43.2781 256.735,38.9581 C 257.455,38.0581 256.015,35.1781 256.735,34.4581 C 254.935,36.6181 253.315,38.9581 251.875,41.2981 C 249.535,45.2581 250.075,49.9381 247.015,53.7181 C 241.795,60.0181 232.075,58.0381 226.135,54.6181 C 223.075,52.8181 220.915,50.4781 217.675,49.0381 C 213.715,47.2381 210.115,44.8981 206.695,42.1981 C 203.275,39.6781 199.855,36.4381 197.875,32.6581 C 195.895,28.8781 195.715,19.3381 196.795,15.9181 C 197.335,14.6581 196.435,12.1381 196.795,11.5981 L 196.795,11.5981 z "
     id="path64" /><path
     style="fill:#000000;fill-rule:nonzero;stroke:none;stroke-width:1.08000004;stroke-linecap:butt;stroke-linejoin:miter;fill-opacity:1"
     d="M 245.755,9.6181 C 247.195,6.9181 247.195,2.7781 247.555,-0.1019 C 247.555,-1.0019 247.735,-1.9019 247.735,-2.9819 C 247.735,-3.3419 247.735,-3.7019 247.735,-4.0619 C 247.735,-5.3219 248.275,-6.5819 247.555,-4.0619 C 247.915,-4.9619 248.995,-5.3219 249.715,-5.3219 C 250.255,-5.3219 250.795,-5.3219 251.155,-5.1419 C 253.135,-4.6019 252.055,-2.4419 252.595,-5.8619 C 252.415,-4.7819 252.595,-3.7019 252.595,-2.8019 C 252.595,-2.6219 252.775,-1.0019 252.955,-1.9019 C 253.315,-3.5219 253.495,-6.0419 252.955,-7.6619 C 252.235,-9.4619 248.815,-11.2619 247.735,-8.7419 C 246.835,-6.9419 247.375,-4.7819 247.195,-2.8019 C 246.655,-0.2819 246.835,2.9581 245.575,5.2981 C 245.035,6.3781 246.115,9.0781 245.755,9.6181 L 245.755,9.6181 z "
     id="path66" /><path
     style="fill:#000000;fill-rule:nonzero;stroke:none;stroke-width:1.08000004;stroke-linecap:butt;stroke-linejoin:miter;fill-opacity:1"
     d="M 251.695,-4.7819 C 252.955,-4.9619 254.035,-5.3219 255.115,-4.6019 C 255.655,-4.0619 256.735,-3.1619 256.735,-2.2619 C 256.735,-3.1619 256.735,-3.8819 256.735,-4.7819 C 256.735,-4.7819 256.735,-4.6019 256.735,-4.6019 C 256.735,-5.1419 256.735,-5.6819 256.915,-6.2219 C 256.915,-6.0419 256.735,-6.0419 256.735,-5.8619 C 256.375,-5.3219 256.555,-3.8819 256.555,-3.1619 C 256.555,-2.9819 256.735,-1.3619 256.915,-1.5419 C 257.455,-2.4419 257.095,-4.2419 257.095,-5.3219 C 257.095,-6.2219 256.915,-6.9419 256.375,-7.6619 C 255.835,-8.3819 255.295,-8.9219 254.755,-9.2819 C 253.855,-9.8219 252.595,-9.4619 251.695,-9.2819 C 251.155,-9.2819 251.515,-4.7819 251.695,-4.7819 L 251.695,-4.7819 z "
     id="path68" /><path
     style="fill:#000000;fill-rule:nonzero;stroke:none;stroke-width:1.08000004;stroke-linecap:butt;stroke-linejoin:miter;fill-opacity:1"
     d="M 256.555,-3.1619 C 258.355,-2.9819 259.255,-1.7219 260.515,-0.6419 C 260.695,-0.6419 260.695,-1.3619 260.695,-1.3619 C 260.695,-1.9019 260.695,-2.4419 260.695,-2.9819 C 260.695,-3.5219 260.695,-4.0619 260.695,-4.6019 C 260.695,-4.6019 260.695,-5.1419 260.515,-5.1419 C 259.255,-6.2219 258.355,-7.4819 256.555,-7.6619 C 256.375,-7.6619 256.195,-3.1619 256.555,-3.1619 L 256.555,-3.1619 z "
     id="path70" /><path
     style="fill:#000000;fill-rule:nonzero;stroke:none;stroke-width:1.08000004;stroke-linecap:butt;stroke-linejoin:miter;fill-opacity:1"
     d="M 261.955,1.5181 C 261.955,7.2781 257.275,11.0581 257.815,16.6381 C 257.995,17.7181 257.635,19.3381 257.995,16.8181 C 257.815,18.2581 257.635,19.8781 257.455,21.4981 C 257.275,24.1981 257.095,27.0781 257.275,29.7781 C 257.635,32.4781 257.815,28.3381 257.815,27.4381 C 257.275,22.5781 258.715,18.0781 258.175,13.0381 C 258.175,14.4781 257.995,15.7381 257.995,17.1781 C 261.055,12.3181 262.315,7.2781 262.315,1.5181 C 262.315,-1.0019 261.955,-1.0019 261.955,1.5181 L 261.955,1.5181 z "
     id="path72" /><path
     style="fill:#000000;fill-rule:nonzero;stroke:none;stroke-width:1.08000004;stroke-linecap:butt;stroke-linejoin:miter;fill-opacity:1"
     d="M 252.235,15.9181 C 251.515,14.1181 249.535,12.3181 247.555,11.7781 C 247.375,11.7781 247.375,13.9381 247.375,14.1181 C 247.375,14.2981 247.195,16.2781 247.555,16.2781 C 249.535,16.8181 251.335,18.4381 252.055,20.2381 C 252.235,20.5981 252.235,20.0581 252.235,20.0581 C 252.235,19.6981 252.415,19.1581 252.415,18.6181 C 252.415,17.8981 252.415,16.8181 252.235,15.9181 L 252.235,15.9181 z "
     id="path74" /><path
     style="fill:#000000;fill-rule:nonzero;stroke:none;stroke-width:1.08000004;stroke-linecap:butt;stroke-linejoin:miter;fill-opacity:1"
     d="M 257.995,29.4181 C 261.235,28.6981 267.535,26.3581 268.795,22.9381 C 268.795,21.6781 268.615,20.2381 268.615,18.7981 C 267.715,24.1981 265.735,28.3381 268.075,33.7381 C 269.695,37.5181 271.315,41.6581 273.295,45.2581 C 274.375,47.0581 275.635,48.6781 276.355,50.4781 C 277.615,53.1781 274.735,58.0381 273.655,60.3781 C 273.115,61.6381 274.015,64.1581 273.835,64.698104 C 275.995,59.6581 278.695,53.3581 277.075,47.5981 C 275.635,43.0981 272.395,39.3181 270.595,34.9981 C 269.875,33.0181 268.975,31.2181 268.075,29.2381 C 266.995,26.8981 268.435,25.0981 268.795,22.7581 C 268.975,21.6781 268.435,19.1581 268.615,18.6181 C 267.355,21.8581 261.055,24.1981 257.995,24.9181 C 257.455,25.0981 257.995,29.5981 257.995,29.4181 L 257.995,29.4181 z "
     id="path76" /><path
     style="fill:#000000;fill-rule:nonzero;stroke:none;stroke-width:1.08000004;stroke-linecap:butt;stroke-linejoin:miter;fill-opacity:1"
     d="M 199.135,64.698104 C 200.215,63.2581 203.455,56.2381 204.895,56.5981 C 206.155,56.7781 207.595,58.2181 208.495,58.7581 C 210.835,60.1981 213.535,61.2781 216.055,62.1781 C 220.195,63.6181 224.155,65.058104 227.935,67.398104 C 231.715,69.918104 235.495,73.338104 238.555,76.578104 C 238.555,75.138104 238.555,73.518104 238.555,72.078104 C 235.135,72.258104 232.975,69.738104 230.635,67.758104 C 227.755,65.418104 224.155,63.9781 220.735,62.5381 C 214.795,60.0181 204.895,53.5381 199.855,60.0181 C 198.955,61.0981 200.395,63.9781 199.855,64.518104 C 204.715,58.3981 213.535,63.9781 219.115,66.318104 C 222.715,67.938104 226.315,69.378104 229.555,71.538104 C 232.615,73.338104 234.595,76.758104 238.555,76.578104 C 238.915,76.578104 238.915,72.438104 238.555,72.078104 C 235.495,68.838104 231.715,65.598104 227.935,62.8981 C 223.975,60.0181 219.115,58.7581 214.435,57.1381 C 211.015,55.6981 207.775,52.8181 204.355,51.9181 C 203.815,51.7381 199.675,59.4781 199.135,60.1981 C 198.415,61.2781 199.495,64.1581 199.135,64.698104 L 199.135,64.698104 z "
     id="path78" /><path
     style="fill:#000000;fill-rule:nonzero;stroke:none;stroke-width:1.08000004;stroke-linecap:butt;stroke-linejoin:miter;fill-opacity:1"
     d="M 236.395,82.518104 C 242.155,78.198104 248.815,74.238104 255.475,71.358104 C 261.955,68.298104 270.055,69.018104 275.275,63.6181 C 276.175,62.7181 274.735,59.6581 275.275,59.1181 C 270.415,64.1581 263.215,63.7981 257.095,66.138104 C 253.135,67.578104 249.715,69.738104 246.115,72.078104 C 242.875,74.058104 239.455,75.678104 236.395,78.018104 C 235.495,78.738104 236.755,82.158104 236.395,82.518104 L 236.395,82.518104 z "
     id="path80" /><path
     style="fill:#000000;fill-rule:nonzero;stroke:none;stroke-width:1.08000004;stroke-linecap:butt;stroke-linejoin:miter;fill-opacity:1"
     d="M 272.935,56.4181 C 270.955,54.0781 268.795,51.9181 266.635,49.5781 C 263.395,46.3381 261.415,42.7381 259.435,38.5981 C 256.375,32.1181 252.415,25.6381 248.455,19.6981 C 248.635,20.2381 247.555,23.1181 248.275,24.1981 C 252.775,30.4981 256.735,37.5181 259.975,44.3581 C 263.215,51.0181 268.255,55.3381 272.935,60.9181 C 272.395,60.1981 273.655,57.4981 272.935,56.4181 L 272.935,56.4181 z "
     id="path82" /><path
     style="fill:#000000;fill-rule:nonzero;stroke:none;stroke-width:1.08000004;stroke-linecap:butt;stroke-linejoin:miter;fill-opacity:1"
     d="M 288.235,71.358104 C 286.975,69.018104 285.355,66.858104 283.015,65.238104 C 281.755,64.338104 280.495,63.4381 279.055,62.8981 C 277.615,62.3581 276.175,62.1781 274.915,61.0981 C 275.275,61.6381 274.015,64.878104 274.915,65.598104 C 275.995,66.498104 277.075,66.858104 278.335,67.218104 C 279.955,67.578104 281.035,68.298104 282.295,69.378104 C 284.815,71.178104 286.615,72.978104 288.055,75.678104 C 288.235,75.858104 288.415,74.238104 288.415,74.238104 C 288.415,73.518104 288.595,72.078104 288.235,71.358104 L 288.235,71.358104 z "
     id="path84" /><path
     style="fill:#000000;fill-rule:nonzero;stroke:none;stroke-width:1.08000004;stroke-linecap:butt;stroke-linejoin:miter;fill-opacity:1"
     d="M 275.995,114.9181 C 281.575,114.1981 282.115,110.0581 281.935,105.1981 C 281.755,103.0381 281.755,99.258104 280.315,97.638104 C 277.255,94.218104 272.575,91.338104 272.035,86.298104 C 272.035,87.378104 272.035,88.458104 272.035,89.718104 C 274.375,80.358104 286.075,76.938104 294.175,79.638104 C 298.315,81.078104 302.095,84.138104 305.875,86.298104 C 308.755,88.098104 313.255,90.978104 314.875,94.038104 C 314.515,93.498104 315.415,90.798104 314.875,89.718104 C 313.615,87.018104 310.555,85.218104 308.215,83.598104 C 304.795,81.078104 301.015,78.738104 297.235,76.578104 C 289.855,72.438104 279.055,73.878104 274.015,81.078104 C 271.135,84.858104 271.135,89.538104 272.935,94.038104 C 274.375,96.918104 277.255,99.258104 279.595,101.2381 C 283.915,105.3781 280.495,109.8781 275.995,110.4181 C 275.455,110.4181 275.815,114.9181 275.995,114.9181 L 275.995,114.9181 z "
     id="path86" /><path
     style="fill:#000000;fill-rule:nonzero;stroke:none;stroke-width:1.08000004;stroke-linecap:butt;stroke-linejoin:miter;fill-opacity:1"
     d="M 270.415,84.318104 C 266.995,88.818104 263.395,96.558104 266.455,102.1381 C 266.635,102.4981 266.815,100.6981 266.815,100.6981 C 266.815,99.978104 266.995,98.538104 266.635,97.818104 C 265.735,96.198104 265.735,98.538104 266.275,97.098104 C 266.455,96.198104 266.815,95.478104 266.995,94.758104 C 267.535,92.418104 268.975,90.618104 270.415,88.818104 C 270.775,88.278104 270.595,87.198104 270.595,86.658104 C 270.595,86.298104 270.235,84.498104 270.415,84.318104 L 270.415,84.318104 z "
     id="path88" /><path
     style="fill:#000000;fill-rule:nonzero;stroke:none;stroke-width:1.08000004;stroke-linecap:butt;stroke-linejoin:miter;fill-opacity:1"
     d="M 300.835,125.1781 C 306.955,124.0981 317.935,120.3181 318.655,112.7581 C 319.375,106.2781 316.855,101.7781 314.155,96.018104 C 314.335,96.558104 313.435,99.258104 313.975,100.3381 C 315.055,102.4981 316.135,104.6581 317.215,106.8181 C 318.835,110.4181 317.035,112.2181 314.515,114.5581 C 310.735,117.9781 305.695,119.7781 300.835,120.6781 C 300.295,120.6781 300.835,125.1781 300.835,125.1781 L 300.835,125.1781 z "
     id="path90" /><path
     style="fill:#000000;fill-rule:nonzero;stroke:none;stroke-width:1.08000004;stroke-linecap:butt;stroke-linejoin:miter;fill-opacity:1"
     d="M 177.895,103.0381 C 179.875,105.0181 180.955,106.4581 184.015,106.8181 C 186.715,106.9981 189.595,106.4581 192.475,106.8181 C 197.875,107.3581 200.575,102.6781 201.655,97.998104 C 202.375,94.578104 203.275,90.978104 202.915,87.558104 C 202.555,82.158104 199.315,79.278104 196.615,74.958104 C 196.795,75.318104 195.715,78.198104 196.435,79.278104 C 198.235,82.158104 200.575,84.678104 202.195,87.738104 C 202.735,88.638104 201.655,92.958104 201.295,94.218104 C 200.755,96.918104 199.675,98.898104 197.695,100.8781 C 195.175,103.2181 191.215,102.1381 188.335,101.9581 C 186.355,101.7781 184.555,102.3181 182.575,102.1381 C 180.595,101.9581 179.155,99.798104 177.895,98.538104 C 178.435,99.078104 176.995,102.3181 177.895,103.0381 L 177.895,103.0381 z "
     id="path92" /><path
     style="fill:#000000;fill-rule:nonzero;stroke:none;stroke-width:1.08000004;stroke-linecap:butt;stroke-linejoin:miter;fill-opacity:1"
     d="M 200.575,74.958104 C 201.655,77.118104 203.635,78.738104 204.895,80.718104 C 206.155,82.698104 206.695,84.858104 208.135,86.658104 C 207.955,86.658104 208.315,84.678104 208.315,84.498104 C 208.315,83.958104 208.495,82.698104 208.135,82.158104 C 206.515,80.178104 205.975,77.838104 204.535,75.858104 C 203.455,74.058104 201.655,72.618104 200.575,70.638104 C 200.575,70.458104 200.395,72.078104 200.395,72.258104 C 200.395,72.978104 200.035,74.418104 200.575,74.958104 L 200.575,74.958104 z "
     id="path94" /><path
     style="fill:#000000;fill-rule:nonzero;stroke:none;stroke-width:1.08000004;stroke-linecap:butt;stroke-linejoin:miter;fill-opacity:1"
     d="M 198.955,70.638104 C 201.835,71.898104 205.075,72.438104 207.775,74.238104 C 211.555,76.398104 213.535,81.438104 215.695,84.858104 C 215.515,84.498104 216.595,81.618104 215.875,80.538104 C 213.715,77.298104 211.915,73.878104 209.215,70.818104 C 206.875,68.118104 202.195,67.578104 198.955,66.138104 C 199.135,66.318104 198.235,70.278104 198.955,70.638104 L 198.955,70.638104 z "
     id="path96" /><path
     style="fill:#000000;fill-rule:nonzero;stroke:none;stroke-width:1.08000004;stroke-linecap:butt;stroke-linejoin:miter;fill-opacity:1"
     d="M 157.555,91.158104 C 157.195,88.098104 157.915,85.758104 159.535,83.058104 C 159.895,82.338104 159.715,81.078104 159.715,80.358104 C 159.715,80.178104 159.535,78.558104 159.355,78.738104 C 156.475,83.958104 156.475,89.178104 157.375,95.118104 C 157.375,95.838104 157.555,94.398104 157.555,94.218104 C 157.735,93.138104 157.735,92.238104 157.555,91.158104 L 157.555,91.158104 z "
     id="path98" /><path
     style="fill:#000000;fill-rule:nonzero;stroke:none;stroke-width:1.08000004;stroke-linecap:butt;stroke-linejoin:miter;fill-opacity:1"
     d="M 170.335,98.358104 C 166.375,97.458104 162.595,95.298104 159.715,92.418104 C 159.715,92.418104 159.355,94.398104 159.355,94.578104 C 159.355,95.118104 159.175,96.558104 159.715,96.918104 C 162.595,99.798104 166.375,101.9581 170.335,102.8581 C 170.335,102.8581 170.875,98.538104 170.335,98.358104 L 170.335,98.358104 z "
     id="path100" /><path
     style="fill:#000000;fill-rule:nonzero;stroke:none;stroke-width:1.08000004;stroke-linecap:butt;stroke-linejoin:miter;fill-opacity:1"
     d="M 206.695,74.238104 C 212.455,74.418104 218.395,77.118104 223.615,79.278104 C 228.115,81.078104 232.795,81.798104 237.295,83.598104 C 241.615,85.218104 243.235,90.618104 246.295,93.858104 C 250.435,97.998104 256.555,100.8781 261.775,103.2181 C 261.415,103.2181 262.495,99.258104 261.775,98.718104 C 256.915,96.378104 251.875,93.858104 247.555,90.438104 C 243.595,87.378104 242.515,82.158104 238.375,79.638104 C 234.595,77.118104 229.375,76.938104 225.235,75.318104 C 219.295,73.338104 213.175,69.918104 206.695,69.738104 C 206.515,69.738104 206.335,74.238104 206.695,74.238104 L 206.695,74.238104 z "
     id="path102" /><path
     style="fill:#000000;fill-rule:nonzero;stroke:none;stroke-width:1.08000004;stroke-linecap:butt;stroke-linejoin:miter;fill-opacity:1"
     d="M 217.495,119.5981 C 221.455,116.5381 224.335,113.4781 225.595,108.6181 C 227.035,103.2181 230.455,101.5981 235.495,100.8781 C 236.035,100.6981 235.675,96.378104 235.495,96.378104 C 231.355,96.918104 227.575,98.178104 225.955,102.3181 C 225.235,104.6581 224.875,106.9981 223.615,108.9781 C 221.995,111.4981 219.835,113.2981 217.495,115.0981 C 216.595,115.8181 218.035,119.2381 217.495,119.5981 L 217.495,119.5981 z "
     id="path104" /><path
     style="fill:#000000;fill-rule:nonzero;stroke:none;stroke-width:1.08000004;stroke-linecap:butt;stroke-linejoin:miter;fill-opacity:1"
     d="M 220.375,118.1581 C 223.255,116.5381 225.595,114.0181 228.475,112.3981 C 231.535,110.7781 234.775,109.1581 238.195,108.4381 C 238.735,108.2581 238.375,103.9381 238.195,103.9381 C 234.775,104.6581 231.715,106.4581 228.475,107.8981 C 225.415,109.3381 223.255,112.0381 220.375,113.6581 C 219.475,114.1981 220.735,117.9781 220.375,118.1581 L 220.375,118.1581 z "
     id="path106" /><path
     style="fill:#000000;fill-rule:nonzero;stroke:none;stroke-width:1.08000004;stroke-linecap:butt;stroke-linejoin:miter;fill-opacity:1"
     d="M 205.615,114.1981 C 209.755,110.0581 209.935,103.9381 211.375,98.358104 C 211.735,97.098104 211.015,94.938104 211.375,94.038104 C 209.935,99.438104 209.575,105.5581 205.615,109.6981 C 204.715,110.5981 206.155,113.6581 205.615,114.1981 L 205.615,114.1981 z "
     id="path108" /><path
     style="fill:#000000;fill-rule:nonzero;stroke:none;stroke-width:1.08000004;stroke-linecap:butt;stroke-linejoin:miter;fill-opacity:1"
     d="M 211.195,111.4981 C 214.075,108.7981 216.775,105.5581 218.575,101.7781 C 218.755,101.0581 218.755,99.798104 218.575,99.078104 C 218.575,98.898104 218.395,97.278104 218.395,97.458104 C 216.775,101.0581 214.075,104.2981 211.195,106.9981 C 210.655,107.3581 210.835,108.7981 210.835,109.1581 C 210.835,109.3381 211.195,111.4981 211.195,111.4981 L 211.195,111.4981 z "
     id="path110" /><path
     style="fill:#000000;fill-rule:nonzero;stroke:none;stroke-width:1.08000004;stroke-linecap:butt;stroke-linejoin:miter;fill-opacity:1"
     d="M 273.295,96.918104 C 270.235,98.538104 267.175,100.3381 264.115,101.9581 C 261.055,103.5781 258.355,106.0981 255.115,106.8181 C 253.675,107.1781 252.595,106.9981 251.335,107.5381 C 250.075,108.0781 248.995,108.6181 247.735,108.9781 C 246.115,109.5181 243.595,108.2581 241.795,108.4381 C 240.715,108.4381 240.895,111.6781 241.075,112.2181 C 241.615,113.2981 242.875,113.8381 244.135,113.8381 C 247.375,114.1981 249.175,116.3581 252.415,114.0181 C 252.955,113.6581 252.055,111.3181 252.415,111.1381 C 249.175,113.2981 246.115,111.4981 242.875,110.5981 C 241.975,110.0581 241.795,110.2381 241.795,111.3181 C 242.335,111.3181 242.875,111.3181 243.415,111.4981 C 244.855,111.4981 246.295,112.0381 247.735,112.0381 C 249.355,112.0381 251.155,110.5981 252.415,110.0581 C 253.315,110.0581 254.215,109.8781 255.115,109.8781 C 256.555,109.6981 257.635,108.7981 258.895,108.0781 C 263.575,105.1981 268.435,102.4981 273.295,99.978104 C 273.835,99.618104 273.115,97.098104 273.295,96.918104 L 273.295,96.918104 z "
     id="path112" /><path
     style="fill:#000000;fill-rule:nonzero;stroke:none;stroke-width:1.08000004;stroke-linecap:butt;stroke-linejoin:miter;fill-opacity:1"
     d="M 254.035,110.4181 C 252.415,112.5781 250.795,114.7381 248.995,116.7181 C 248.095,117.6181 247.195,118.5181 246.295,119.2381 C 245.395,120.1381 244.675,121.2181 243.775,122.1181 C 243.235,122.4781 243.415,123.9181 243.415,124.2781 C 243.415,124.4581 243.775,126.6181 243.775,126.6181 C 245.395,125.1781 246.835,123.3781 248.455,121.7581 C 250.435,119.7781 252.235,117.2581 254.035,114.9181 C 254.395,114.3781 254.215,113.2981 254.215,112.7581 C 254.215,112.3981 254.035,110.5981 254.035,110.4181 L 254.035,110.4181 z "
     id="path114" /><path
     style="fill:#000000;fill-rule:nonzero;stroke:none;stroke-width:1.08000004;stroke-linecap:butt;stroke-linejoin:miter;fill-opacity:1"
     d="M 252.055,117.7981 C 249.175,121.7581 246.835,122.6581 242.155,123.3781 C 240.355,123.5581 236.755,122.8381 236.395,125.3581 C 235.675,129.1381 236.035,131.1181 239.995,132.0181 C 242.335,132.5581 244.495,133.0981 246.835,132.5581 C 250.975,131.4781 254.755,127.8781 257.275,124.8181 C 259.795,121.7581 262.135,119.2381 265.735,117.6181 C 268.975,116.1781 273.835,116.5381 277.435,115.9981 C 277.975,115.9981 277.435,111.4981 277.435,111.4981 C 273.475,112.2181 269.515,112.2181 265.735,113.1181 C 261.775,114.1981 258.715,118.5181 256.195,121.5781 C 253.495,124.8181 248.995,128.0581 244.495,128.4181 C 242.695,128.4181 237.475,127.5181 236.575,125.7181 C 236.575,126.9781 236.575,128.0581 236.575,129.1381 C 236.755,127.5181 245.215,127.3381 246.115,127.3381 C 248.815,126.9781 250.615,124.0981 252.055,122.1181 C 252.775,121.0381 251.695,118.1581 252.055,117.7981 L 252.055,117.7981 z "
     id="path116" /><path
     style="fill:#000000;fill-rule:nonzero;stroke:none;stroke-width:1.08000004;stroke-linecap:butt;stroke-linejoin:miter;fill-opacity:1"
     d="M 281.035,115.8181 C 286.975,115.0981 300.115,116.1781 302.995,109.1581 C 303.535,108.0781 302.635,105.5581 302.995,104.8381 C 300.115,111.6781 286.795,110.5981 281.035,111.3181 C 280.495,111.4981 280.855,115.9981 281.035,115.8181 L 281.035,115.8181 z "
     id="path118" /><path
     style="fill:#000000;fill-rule:nonzero;stroke:none;stroke-width:1.08000004;stroke-linecap:butt;stroke-linejoin:miter;fill-opacity:1"
     d="M 281.035,118.1581 C 287.515,118.8781 292.915,123.3781 299.395,124.2781 C 302.815,124.8181 306.055,126.2581 309.295,127.5181 C 311.275,128.2381 316.135,128.7781 316.675,131.1181 C 316.675,129.6781 316.675,128.2381 316.675,126.7981 C 314.695,130.0381 311.995,128.7781 309.115,127.8781 C 309.295,127.8781 308.395,132.0181 309.115,132.3781 C 311.815,133.2781 316.675,134.5381 316.855,130.2181 C 317.035,127.1581 317.035,125.5381 313.795,124.4581 C 308.575,122.8381 303.535,120.4981 297.955,119.5981 C 291.835,118.6981 287.155,114.3781 281.035,113.6581 C 280.855,113.6581 280.495,118.1581 281.035,118.1581 L 281.035,118.1581 z "
     id="path120" /><path
     style="fill:#000000;fill-rule:nonzero;stroke:none;stroke-width:1.08000004;stroke-linecap:butt;stroke-linejoin:miter;fill-opacity:1"
     d="M 298.675,128.4181 C 300.655,129.6781 302.995,130.0381 304.975,130.9381 C 307.135,132.0181 304.255,130.3981 303.715,130.2181 C 302.275,129.4981 301.015,128.4181 299.575,127.6981 C 296.335,125.7181 293.095,129.4981 289.855,127.1581 C 286.975,125.1781 285.535,121.5781 281.575,123.1981 C 280.855,123.5581 281.935,127.6981 281.575,127.6981 C 284.275,126.6181 286.075,128.0581 288.055,129.8581 C 290.395,132.0181 291.475,133.0981 294.715,132.1981 C 297.595,131.2981 299.215,131.8381 301.735,133.4581 C 302.275,133.6381 305.515,136.5181 306.055,135.2581 C 306.955,133.2781 307.135,130.5781 306.775,128.4181 C 306.235,125.5381 300.655,125.1781 298.675,123.9181 C 299.035,124.0981 297.775,127.8781 298.675,128.4181 L 298.675,128.4181 z "
     id="path122" /><path
     style="fill:#000000;fill-rule:nonzero;stroke:none;stroke-width:1.08000004;stroke-linecap:butt;stroke-linejoin:miter;fill-opacity:1"
     d="M 261.415,124.8181 C 263.395,125.5381 265.555,126.6181 267.355,127.8781 C 271.315,130.7581 270.055,134.8981 267.355,137.9581 C 265.375,140.1181 263.575,142.2781 260.875,143.7181 C 257.635,145.3381 253.315,144.2581 249.895,144.2581 C 241.795,144.4381 235.495,143.3581 228.115,139.5781 C 225.235,138.1381 222.355,136.6981 218.935,136.1581 C 215.335,135.2581 211.555,136.1581 207.955,135.2581 C 207.955,135.2581 207.415,139.5781 207.955,139.7581 C 212.095,140.6581 216.415,139.9381 220.555,140.8381 C 225.415,141.9181 229.735,145.1581 234.235,146.9581 C 238.735,148.7581 243.415,148.9381 248.095,148.7581 C 252.955,148.7581 257.815,149.6581 262.315,147.4981 C 266.815,145.1581 271.315,138.8581 271.135,133.6381 C 270.955,126.9781 267.715,122.4781 261.415,120.3181 C 261.415,120.4981 260.695,124.6381 261.415,124.8181 L 261.415,124.8181 z "
     id="path124" /><path
     style="fill:#000000;fill-rule:nonzero;stroke:none;stroke-width:1.08000004;stroke-linecap:butt;stroke-linejoin:miter;fill-opacity:1"
     d="M 208.495,116.5381 C 213.175,119.4181 218.755,121.2181 224.155,121.9381 C 230.095,122.6581 236.215,120.6781 242.155,122.4781 C 241.975,122.4781 242.875,118.1581 242.155,117.9781 C 236.935,116.3581 231.175,117.6181 225.775,117.4381 C 219.835,117.2581 213.535,115.0981 208.495,112.0381 C 208.855,112.2181 207.595,115.9981 208.495,116.5381 L 208.495,116.5381 z "
     id="path126" /><path
     style="fill:#000000;fill-rule:nonzero;stroke:none;stroke-width:1.08000004;stroke-linecap:butt;stroke-linejoin:miter;fill-opacity:1"
     d="M 202.735,137.4181 C 206.155,134.3581 207.415,128.9581 208.135,124.4581 C 208.855,121.0381 209.035,116.3581 207.055,113.2981 C 207.415,113.6581 206.335,116.5381 206.875,117.6181 C 209.395,121.5781 205.975,130.0381 202.735,132.9181 C 201.835,133.8181 203.275,137.0581 202.735,137.4181 L 202.735,137.4181 z "
     id="path128" /><path
     style="fill:#000000;fill-rule:nonzero;stroke:none;stroke-width:1.08000004;stroke-linecap:butt;stroke-linejoin:miter;fill-opacity:1"
     d="M 201.835,128.7781 C 199.855,127.8781 198.415,126.0781 196.615,124.9981 C 194.095,123.1981 190.855,122.6581 188.155,121.5781 C 185.815,120.6781 183.295,119.7781 181.495,117.9781 C 182.755,119.2381 178.795,114.5581 178.975,114.7381 C 177.895,114.0181 176.455,113.8381 176.095,112.3981 C 176.095,113.8381 176.095,115.4581 176.095,116.8981 C 176.455,116.3581 176.815,115.8181 177.175,115.4581 C 177.535,114.9181 177.715,111.3181 177.175,110.9581 C 175.735,110.0581 174.475,110.5981 173.755,108.9781 C 173.755,110.4181 173.755,111.8581 173.755,113.2981 C 174.115,112.9381 174.475,112.5781 174.655,112.0381 C 175.555,111.4981 174.295,107.8981 174.655,107.5381 C 173.215,108.6181 173.395,110.0581 173.395,111.6781 C 173.575,114.7381 175.015,114.1981 177.175,115.4581 C 177.175,113.8381 177.175,112.3981 177.175,110.9581 C 175.915,112.2181 175.735,113.4781 175.915,115.2781 C 175.915,118.5181 177.895,117.6181 179.695,120.1381 C 182.215,123.9181 185.635,125.1781 189.775,126.6181 C 192.115,127.5181 194.455,128.2381 196.615,129.4981 C 198.595,130.5781 199.675,132.3781 201.835,133.2781 C 201.655,133.0981 202.555,129.1381 201.835,128.7781 L 201.835,128.7781 z "
     id="path130" /><path
     style="fill:#000000;fill-rule:nonzero;stroke:none;stroke-width:1.08000004;stroke-linecap:butt;stroke-linejoin:miter;fill-opacity:1"
     d="M 205.975,115.6381 C 202.015,115.4581 197.155,114.3781 193.915,111.8581 C 192.115,110.5981 191.755,108.0781 190.495,106.4581 C 189.235,104.8381 186.715,104.8381 184.915,104.2981 C 185.095,104.2981 184.195,108.4381 184.915,108.7981 C 186.535,109.3381 188.335,109.5181 189.775,110.2381 C 191.575,111.1381 191.935,114.1981 193.195,115.6381 C 196.075,118.8781 201.835,119.9581 205.975,120.1381 C 206.335,120.1381 206.335,115.6381 205.975,115.6381 L 205.975,115.6381 z "
     id="path132" /><path
     style="fill:#000000;fill-rule:nonzero;stroke:none;stroke-width:1.08000004;stroke-linecap:butt;stroke-linejoin:miter;fill-opacity:1"
     d="M 177.355,102.6781 C 176.455,102.3181 175.375,102.8581 174.835,103.3981 C 174.655,103.9381 174.475,104.2981 174.475,104.8381 C 174.295,105.9181 174.295,107.1781 174.475,108.2581 C 174.655,109.5181 175.195,109.6981 176.275,109.6981 C 177.175,109.8781 178.255,109.8781 179.155,110.2381 C 179.155,110.2381 179.335,108.0781 179.335,107.8981 C 179.335,107.7181 179.515,105.9181 179.155,105.7381 C 177.895,105.1981 176.455,105.5581 175.195,105.0181 C 175.015,105.0181 175.015,105.0181 174.835,104.8381 C 174.835,104.8381 174.835,104.8381 174.835,104.8381 C 174.115,103.7581 173.935,104.8381 174.835,108.2581 C 174.835,107.8981 175.195,107.7181 175.375,107.5381 C 175.915,106.9981 176.815,106.8181 177.355,107.1781 C 177.535,107.1781 177.535,105.0181 177.535,104.8381 C 177.535,104.6581 177.715,102.6781 177.355,102.6781 L 177.355,102.6781 z "
     id="path134" /><path
     style="fill:#000000;fill-rule:nonzero;stroke:none;stroke-width:1.08000004;stroke-linecap:butt;stroke-linejoin:miter;fill-opacity:1"
     d="M 188.695,127.3381 C 186.715,129.6781 187.075,133.0981 187.615,135.9781 C 188.155,140.2981 189.415,143.1781 192.655,146.2381 C 192.115,145.6981 193.555,142.4581 192.655,141.7381 C 191.215,140.2981 189.775,139.0381 188.875,137.2381 C 188.515,136.3381 188.515,135.0781 188.335,134.1781 C 187.975,133.4581 187.975,132.7381 187.795,132.0181 C 187.615,133.4581 187.975,133.4581 188.695,131.8381 C 189.055,131.2981 188.875,130.0381 188.875,129.4981 C 188.875,129.3181 188.695,127.3381 188.695,127.3381 L 188.695,127.3381 z "
     id="path136" /><path
     style="fill:#000000;fill-rule:nonzero;stroke:none;stroke-width:1.08000004;stroke-linecap:butt;stroke-linejoin:miter;fill-opacity:1"
     d="M 164.755,121.0381 C 166.735,122.6581 168.715,124.0981 170.515,125.8981 C 173.395,128.7781 173.215,132.1981 173.935,136.1581 C 174.835,140.4781 177.535,144.4381 181.135,146.9581 C 180.775,146.7781 182.035,143.1781 181.135,142.4581 C 176.095,138.8581 174.655,134.3581 173.935,128.4181 C 173.215,123.0181 168.715,119.5981 164.755,116.5381 C 165.115,116.8981 163.855,120.4981 164.755,121.0381 L 164.755,121.0381 z "
     id="path138" /><path
     style="fill:#000000;fill-rule:nonzero;stroke:none;stroke-width:1.08000004;stroke-linecap:butt;stroke-linejoin:miter;fill-opacity:1"
     d="M 154.855,119.0581 C 157.915,120.6781 161.335,121.3981 164.215,122.8381 C 168.355,124.9981 168.535,130.0381 170.335,133.8181 C 170.155,133.2781 171.055,130.5781 170.515,129.4981 C 168.895,126.0781 168.715,121.7581 165.655,119.2381 C 162.595,116.7181 158.275,116.3581 154.855,114.5581 C 155.035,114.7381 153.955,118.6981 154.855,119.0581 L 154.855,119.0581 z "
     id="path140" /><path
     style="fill:#000000;fill-rule:nonzero;stroke:none;stroke-width:1.08000004;stroke-linecap:butt;stroke-linejoin:miter;fill-opacity:1"
     d="M 152.335,128.2381 C 150.175,130.9381 147.475,131.8381 144.055,131.2981 C 141.355,130.9381 138.475,129.3181 135.775,130.2181 C 135.055,130.3981 135.775,134.5381 135.775,134.7181 C 138.295,133.8181 141.355,135.2581 144.055,135.7981 C 147.475,136.5181 150.175,135.2581 152.335,132.7381 C 153.235,131.6581 151.795,128.9581 152.335,128.2381 L 152.335,128.2381 z "
     id="path142" /><path
     style="fill:#000000;fill-rule:nonzero;stroke:none;stroke-width:1.08000004;stroke-linecap:butt;stroke-linejoin:miter;fill-opacity:1"
     d="M 146.215,124.9981 C 138.475,123.5581 131.275,123.7381 124.975,129.1381 C 121.915,131.8381 122.275,137.4181 122.815,141.0181 C 123.175,144.0781 123.895,147.1381 125.155,150.0181 C 126.415,152.8981 131.095,151.2781 133.255,150.9181 C 137.215,150.3781 140.815,152.3581 144.415,153.4381 C 148.915,154.8781 153.955,153.0781 158.275,151.8181 C 158.995,151.6381 158.095,147.3181 158.275,147.3181 C 152.515,149.1181 147.475,150.0181 141.715,148.0381 C 138.835,147.1381 136.315,146.2381 133.255,146.4181 C 130.555,146.5981 127.135,148.3981 125.155,145.6981 C 124.075,144.0781 123.535,140.4781 123.175,138.6781 C 122.275,134.5381 126.595,132.1981 129.475,130.7581 C 135.055,128.0581 140.455,128.4181 146.215,129.4981 C 146.395,129.4981 146.935,125.1781 146.215,124.9981 L 146.215,124.9981 z "
     id="path144" /><path
     style="fill:#000000;fill-rule:nonzero;stroke:none;stroke-width:1.08000004;stroke-linecap:butt;stroke-linejoin:miter;fill-opacity:1"
     d="M 128.215,128.0581 C 130.555,124.0981 133.975,121.2181 136.315,117.2581 C 139.015,112.7581 139.915,107.1781 142.075,102.3181 C 144.055,97.638104 147.835,94.038104 149.995,89.358104 C 151.075,87.378104 151.435,84.858104 153.595,83.418104 C 155.035,82.518104 156.475,81.798104 157.915,80.718104 C 158.815,80.178104 157.555,76.578104 157.915,76.218104 C 155.035,78.378104 152.515,78.918104 151.075,82.338104 C 148.735,87.558104 145.495,91.698104 142.615,96.378104 C 139.735,101.0581 139.015,106.6381 136.855,111.6781 C 134.875,116.1781 130.735,119.4181 128.035,123.5581 C 127.495,124.6381 128.575,127.5181 128.215,128.0581 L 128.215,128.0581 z "
     id="path146" /><path
     style="fill:#000000;fill-rule:nonzero;stroke:none;stroke-width:1.08000004;stroke-linecap:butt;stroke-linejoin:miter;fill-opacity:1"
     d="M 129.475,153.4381 C 129.475,153.9781 127.855,157.0381 127.675,157.9381 C 126.955,160.2781 126.955,162.9781 126.055,165.3181 C 124.435,169.0981 123.895,172.8781 123.715,177.0181 C 123.715,178.4581 124.075,181.3381 124.075,178.0981 C 124.255,173.5981 126.415,170.7181 127.135,166.5781 C 127.675,163.8781 128.035,161.1781 128.935,158.4781 C 130.015,155.5981 130.015,152.7181 129.655,149.6581 C 129.475,148.7581 129.295,150.3781 129.295,150.3781 C 129.295,151.4581 129.295,152.5381 129.475,153.4381 L 129.475,153.4381 z "
     id="path148" /><path
     style="fill:#000000;fill-rule:nonzero;stroke:none;stroke-width:1.08000004;stroke-linecap:butt;stroke-linejoin:miter;fill-opacity:1"
     d="M 146.215,153.4381 C 144.235,158.4781 142.975,163.6981 140.995,168.5581 C 139.195,173.4181 135.595,176.8381 133.795,181.6981 C 133.435,182.9581 134.155,185.4781 133.975,186.0181 C 135.775,181.3381 139.015,177.5581 141.175,172.8781 C 143.335,168.0181 144.235,162.7981 146.215,157.7581 C 146.755,156.4981 145.855,154.1581 146.215,153.4381 L 146.215,153.4381 z "
     id="path150" /><path
     style="fill:#000000;fill-rule:nonzero;stroke:none;stroke-width:1.08000004;stroke-linecap:butt;stroke-linejoin:miter;fill-opacity:1"
     d="M 304.615,138.8581 C 307.675,140.6581 309.295,143.5381 310.915,146.5981 C 312.355,149.2981 308.935,154.5181 307.855,157.3981 C 306.055,162.0781 301.735,172.8781 295.255,171.6181 C 295.255,171.6181 294.715,176.1181 295.255,176.1181 C 299.395,177.0181 301.915,172.8781 303.715,169.8181 C 307.135,164.4181 309.655,158.2981 311.635,152.3581 C 313.795,145.8781 310.195,137.7781 304.615,134.3581 C 304.975,134.7181 303.715,138.3181 304.615,138.8581 L 304.615,138.8581 z "
     id="path152" /><path
     style="fill:#000000;fill-rule:nonzero;stroke:none;stroke-width:1.08000004;stroke-linecap:butt;stroke-linejoin:miter;fill-opacity:1"
     d="M 294.715,168.7381 C 293.275,170.7181 290.755,169.6381 288.775,169.0981 C 285.175,168.3781 281.395,167.8381 278.515,165.8581 C 278.695,166.0381 277.795,168.3781 278.515,168.9181 C 281.215,170.7181 284.635,171.0781 287.695,171.7981 C 289.855,172.3381 293.095,173.7781 294.715,171.7981 C 295.255,171.0781 294.355,169.2781 294.715,168.7381 L 294.715,168.7381 z "
     id="path154" /><path
     style="fill:#000000;fill-rule:nonzero;stroke:none;stroke-width:1.08000004;stroke-linecap:butt;stroke-linejoin:miter;fill-opacity:1"
     d="M 282.655,162.9781 C 279.595,161.3581 275.635,160.0981 274.015,156.6781 C 273.835,156.4981 273.835,157.5781 273.835,157.7581 C 273.835,158.2981 273.655,159.0181 273.835,159.5581 C 275.455,162.9781 279.595,164.4181 282.655,165.8581 C 282.475,165.8581 283.195,163.1581 282.655,162.9781 L 282.655,162.9781 z "
     id="path156" /><path
     style="fill:#000000;fill-rule:nonzero;stroke:none;stroke-width:1.08000004;stroke-linecap:butt;stroke-linejoin:miter;fill-opacity:1"
     d="M 276.535,158.4781 C 277.795,156.6781 277.795,154.8781 279.415,153.0781 C 279.955,152.3581 279.955,151.2781 279.955,150.3781 C 280.135,147.8581 278.515,146.2381 278.335,143.7181 C 278.335,143.1781 278.155,142.4581 278.155,141.9181 C 278.515,143.7181 278.515,142.2781 279.775,141.7381 C 281.395,140.8381 283.555,141.0181 285.355,140.6581 C 287.335,140.4781 288.955,139.2181 290.755,138.3181 C 293.095,137.0581 295.615,136.8781 298.315,137.2381 C 298.495,137.2381 298.855,132.7381 298.315,132.7381 C 293.275,132.0181 290.575,134.8981 286.075,135.9781 C 283.555,136.6981 279.775,135.9781 277.975,138.4981 C 275.815,142.0981 278.515,148.7581 279.775,151.9981 C 279.775,150.5581 279.775,149.1181 279.775,147.6781 C 278.695,149.8381 278.875,148.7581 277.795,150.1981 C 276.895,151.4581 277.435,152.8981 276.355,154.1581 C 275.815,155.2381 276.895,158.1181 276.535,158.4781 L 276.535,158.4781 z "
     id="path158" /><path
     style="fill:#000000;fill-rule:nonzero;stroke:none;stroke-width:1.08000004;stroke-linecap:butt;stroke-linejoin:miter;fill-opacity:1"
     d="M 261.055,148.5781 C 265.015,150.1981 272.035,147.4981 274.555,144.4381 C 274.915,143.8981 274.735,142.6381 274.735,142.0981 C 274.735,141.9181 274.555,139.9381 274.555,139.9381 C 272.035,142.9981 265.015,145.6981 261.055,144.0781 C 261.235,144.0781 260.335,148.2181 261.055,148.5781 L 261.055,148.5781 z "
     id="path160" /></g><text
   sodipodi:linespacing="125%"
   id="text2236"
   y="276.45044"
   x="211.18983"
   style="font-size:26.10106659px;font-style:normal;font-variant:normal;font-weight:bold;font-stretch:normal;text-align:center;line-height:125%;writing-mode:lr-tb;text-anchor:middle;fill:#000000;fill-opacity:1;stroke:none;stroke-width:1px;stroke-linecap:butt;stroke-linejoin:miter;stroke-opacity:1;font-family:LMSansQuotation8"
   xml:space="preserve"><tspan
     id="tspan2248"
     style="font-size:26.10106658999999851px;font-style:normal;font-variant:normal;font-weight:bold;font-stretch:normal;text-align:center;line-height:125%;writing-mode:lr-tb;text-anchor:middle;fill:#000000;fill-opacity:1;font-family:Latin Modern Sans Quotation;-inkscape-font-specification:Latin Modern Sans Quotation"
     y="276.45044"
     x="211.18983"
     sodipodi:role="line">Sanshinkai Aikido</tspan><tspan
     id="tspan2246"
     style="font-size:26.10106658999999851px;font-style:normal;font-variant:normal;font-weight:bold;font-stretch:normal;text-align:center;line-height:125%;writing-mode:lr-tb;text-anchor:middle;fill:#000000;fill-opacity:1;font-family:Latin Modern Sans Quotation;-inkscape-font-specification:Latin Modern Sans Quotation"
     y="309.07677"
     x="211.18983"
     sodipodi:role="line">Utrecht</tspan></text>


</g>

</svg>